<svg xmlns="http://www.w3.org/2000/svg" viewBox="0 0 30 25.97">
	<path d="M30,12.985a2.824,2.824,0,0,1-.494,1.619,3.162,3.162,0,0,1-1.331,1.113,5.358,5.358,0,0,1,.2,1.473A6.541,6.541,0,0,1,26.593,21.6a12.04,12.04,0,0,1-4.863,3.2,18.648,18.648,0,0,1-6.7,1.174A18.58,18.58,0,0,1,8.345,24.8a12.046,12.046,0,0,1-4.855-3.2,6.541,6.541,0,0,1-1.783-4.405,5.813,5.813,0,0,1,.184-1.443A3.275,3.275,0,0,1,.519,14.62,2.8,2.8,0,0,1,0,12.985a2.835,2.835,0,0,1,.971-2.157,3.351,3.351,0,0,1,2.36-.9,3.373,3.373,0,0,1,2.427.967,16.646,16.646,0,0,1,8.622-2.487l1.942-8a.523.523,0,0,1,.251-.322.589.589,0,0,1,.435-.077l6.177,1.243a2.272,2.272,0,0,1,.9-.913A2.613,2.613,0,0,1,25.413,0a2.55,2.55,0,0,1,1.775.668,2.106,2.106,0,0,1,.737,1.619,2.129,2.129,0,0,1-.737,1.627,2.669,2.669,0,0,1-3.541.008A2.117,2.117,0,0,1,22.919,2.3L17.327,1.167,15.586,8.411a16.812,16.812,0,0,1,8.689,2.456,3.316,3.316,0,0,1,2.394-.936,3.351,3.351,0,0,1,2.36.9A2.835,2.835,0,0,1,30,12.985ZM7,16.04a2.14,2.14,0,0,0,.728,1.627,2.5,2.5,0,0,0,1.766.675,2.533,2.533,0,0,0,1.775-.675A2.129,2.129,0,0,0,12,16.04a2.106,2.106,0,0,0-.737-1.619,2.55,2.55,0,0,0-1.775-.668,2.512,2.512,0,0,0-1.758.675A2.113,2.113,0,0,0,7,16.04Zm13.56,5.449a.524.524,0,0,0,0-.8.6.6,0,0,0-.419-.153.658.658,0,0,0-.435.153,4.326,4.326,0,0,1-2.026.952,11.84,11.84,0,0,1-5.357,0A4.325,4.325,0,0,1,10.3,20.69a.658.658,0,0,0-.435-.153.6.6,0,0,0-.419.153.487.487,0,0,0-.184.391.532.532,0,0,0,.184.407,5.078,5.078,0,0,0,1.984,1.044,10.642,10.642,0,0,0,2.051.453q.787.069,1.523.069t1.523-.069a10.642,10.642,0,0,0,2.051-.453A5.078,5.078,0,0,0,20.558,21.488Zm-.05-3.147a2.5,2.5,0,0,0,1.766-.675A2.14,2.14,0,0,0,23,16.04a2.113,2.113,0,0,0-.737-1.612,2.512,2.512,0,0,0-1.758-.675,2.55,2.55,0,0,0-1.775.668A2.106,2.106,0,0,0,18,16.04a2.129,2.129,0,0,0,.737,1.627A2.533,2.533,0,0,0,20.508,18.342Z"/>
</svg>
