<svg xmlns="http://www.w3.org/2000/svg" viewBox="0 0 520 85.825">
  <g transform="translate(0 -0.049)">
    <g transform="translate(0 5.051)" class="svg-logo-0">
      <path d="M51.75,54.914q-3.681-9.96-7.3-19.29T36.915,17.707q-4.025,8.586-7.646,17.916t-7.188,19.29l-3.22,9.159L11.616,84.335H0q4.6-12.591,8.625-23.3T16.5,40.718Q20.354,31.1,24.15,22.344T32.086,5H42.32q4.142,8.586,7.935,17.344T57.9,40.718q3.852,9.616,7.877,20.321t8.625,23.3H62.216Q60.26,79.184,58.535,74.2T54.97,64.073Z" transform="translate(0 -5)"/>
      <path d="M80.843,26.334q3.681-.916,9.718-1.946a83.911,83.911,0,0,1,13.972-1.03,26.4,26.4,0,0,1,9.66,1.545,16.974,16.974,0,0,1,6.555,4.522q.8-.572,2.53-1.6a27.874,27.874,0,0,1,4.255-2,45.194,45.194,0,0,1,5.634-1.718,28.616,28.616,0,0,1,6.671-.743,27.217,27.217,0,0,1,11.269,2,16.175,16.175,0,0,1,6.843,5.667,21.969,21.969,0,0,1,3.336,8.7,65.345,65.345,0,0,1,.863,10.99V84.146h-10.7V53.007a67.871,67.871,0,0,0-.516-9.044,17.424,17.424,0,0,0-1.956-6.3,8.955,8.955,0,0,0-3.91-3.72,14.642,14.642,0,0,0-6.382-1.2,23.787,23.787,0,0,0-8.912,1.431A17.547,17.547,0,0,0,125,36.752a39.324,39.324,0,0,1,1.38,6.525,58.183,58.183,0,0,1,.461,7.441V84.146H116.148V53.007a61.2,61.2,0,0,0-.576-9.044,18.215,18.215,0,0,0-2.012-6.3,8.965,8.965,0,0,0-3.91-3.72,14.336,14.336,0,0,0-6.268-1.2q-1.612,0-3.449.114t-3.507.287q-1.669.171-3.048.4t-1.838.344V84.146h-10.7Z" transform="translate(0.806 -4.811)"/>
      <path  d="M226.573,54.384a37.505,37.505,0,0,1-2.07,12.822,29.291,29.291,0,0,1-5.808,9.845,25.564,25.564,0,0,1-8.912,6.353,29.558,29.558,0,0,1-22.54,0,25.531,25.531,0,0,1-8.912-6.353,29.262,29.262,0,0,1-5.808-9.845,37.505,37.505,0,0,1-2.07-12.822,37.655,37.655,0,0,1,2.07-12.765,29.186,29.186,0,0,1,5.808-9.9,25.521,25.521,0,0,1,8.912-6.354,29.569,29.569,0,0,1,22.54,0,25.554,25.554,0,0,1,8.912,6.354,29.215,29.215,0,0,1,5.808,9.9A37.655,37.655,0,0,1,226.573,54.384Zm-11.155,0q0-10.073-4.542-15.97a15.909,15.909,0,0,0-24.725,0q-4.545,5.9-4.542,15.97t4.542,15.97a15.91,15.91,0,0,0,24.725,0Q215.416,64.458,215.417,54.384Z" transform="translate(1.7 -4.813)"/>
      <path d="M283.256,24.6a299.141,299.141,0,0,1-10.523,32.054Q266.7,72,261.061,84.133H251.4Q245.764,72,239.73,56.658A299.131,299.131,0,0,1,229.206,24.6h11.5q1.379,5.61,3.278,11.962t4.024,12.593q2.126,6.241,4.313,12.077t4.141,10.418q1.953-4.576,4.139-10.418t4.313-12.077q2.126-6.239,4.025-12.593T272.216,24.6Z" transform="translate(2.286 -4.798)"/>
      <path  d="M285.912,54.5a37.855,37.855,0,0,1,2.3-13.8,28.816,28.816,0,0,1,6.095-9.788,24.79,24.79,0,0,1,8.741-5.838,27.412,27.412,0,0,1,10.12-1.946q12.073,0,18.514,7.5t6.44,22.839v1.774a16.277,16.277,0,0,1-.116,2H297.067q.688,9.272,5.4,14.081t14.72,4.807a39.4,39.4,0,0,0,9.488-.973,34.029,34.029,0,0,0,5.808-1.889l1.5,8.929a31.8,31.8,0,0,1-6.843,2.175,48.915,48.915,0,0,1-11.1,1.145,35.391,35.391,0,0,1-13.514-2.346,25.226,25.226,0,0,1-9.373-6.468,26.311,26.311,0,0,1-5.461-9.788A41.167,41.167,0,0,1,285.912,54.5Zm41.054-5.838q.114-7.212-3.623-11.849a12.5,12.5,0,0,0-10.292-4.636,14.17,14.17,0,0,0-6.5,1.431,15.339,15.339,0,0,0-4.773,3.72,17.11,17.11,0,0,0-3.047,5.267A25.8,25.8,0,0,0,297.3,48.66Z" transform="translate(2.852 -4.813)"/>
      <path  d="M400.554,54.384a37.506,37.506,0,0,1-2.07,12.822,29.292,29.292,0,0,1-5.808,9.845,25.564,25.564,0,0,1-8.912,6.353,29.558,29.558,0,0,1-22.54,0,25.53,25.53,0,0,1-8.912-6.353,29.262,29.262,0,0,1-5.808-9.845,37.505,37.505,0,0,1-2.07-12.822,37.655,37.655,0,0,1,2.07-12.765,29.186,29.186,0,0,1,5.808-9.9,25.521,25.521,0,0,1,8.912-6.354,29.569,29.569,0,0,1,22.54,0,25.554,25.554,0,0,1,8.912,6.354,29.216,29.216,0,0,1,5.808,9.9A37.655,37.655,0,0,1,400.554,54.384Zm-11.155,0q0-10.073-4.542-15.97a15.909,15.909,0,0,0-24.725,0q-4.545,5.9-4.542,15.97t4.542,15.97a15.91,15.91,0,0,0,24.725,0Q389.4,64.458,389.4,54.384Z" transform="translate(3.436 -4.813)"/>
    </g>
    <g transform="translate(396.462 0.049)" class="svg-logo-1">
      <path d="M414.88,6.685q.508,1.743,1.123,3.931t1.315,4.526q.7,2.338,1.42,4.675t1.4,4.335q.555-2.167,1.131-4.717t1.088-5.27q.512-2.719,1-5.418t.918-5.205h6.884q-1.5,7.394-3.441,15T423.513,32.99h-6.062q-1.485-4.079-2.883-8.563t-2.756-8.988q-1.361,4.5-2.722,8.988t-2.85,8.563h-6.057q-2.262-6.842-4.2-14.449t-3.434-15h7.179q.426,2.508.939,5.205t1.067,5.418q.555,2.72,1.131,5.27t1.174,4.717q.766-2.082,1.49-4.42t1.4-4.675q.681-2.337,1.255-4.5t1.043-3.868Z" transform="translate(-392.546 -0.013)"/>
      <path  d="M439.919,9.976a14.65,14.65,0,0,1,4.673.637,7.261,7.261,0,0,1,2.994,1.827,6.736,6.736,0,0,1,1.594,2.89,14.3,14.3,0,0,1,.467,3.782V32.286q-1.36.3-3.781.7a36.351,36.351,0,0,1-5.863.4,18.566,18.566,0,0,1-3.929-.383,8.521,8.521,0,0,1-3.038-1.253,5.729,5.729,0,0,1-1.954-2.274,7.848,7.848,0,0,1-.68-3.442,6.521,6.521,0,0,1,.786-3.315,6.046,6.046,0,0,1,2.1-2.167,9.5,9.5,0,0,1,3.017-1.169,16.948,16.948,0,0,1,3.526-.361,20.091,20.091,0,0,1,2.188.106,9.8,9.8,0,0,1,1.55.276v-.595a3.5,3.5,0,0,0-.977-2.592,4.732,4.732,0,0,0-3.4-.977,21.687,21.687,0,0,0-3.187.234,13.68,13.68,0,0,0-2.719.659l-.807-5.1q.552-.169,1.381-.361t1.806-.34q.976-.149,2.06-.255T439.919,9.976Zm.51,18.528q.934,0,1.784-.042a12.221,12.221,0,0,0,1.359-.128v-4.8q-.382-.084-1.147-.17a12.88,12.88,0,0,0-1.4-.085,12.681,12.681,0,0,0-1.679.106,4.4,4.4,0,0,0-1.381.4,2.36,2.36,0,0,0-.934.808,2.239,2.239,0,0,0-.34,1.275,2.171,2.171,0,0,0,1,2.061A5.519,5.519,0,0,0,440.429,28.5Z" transform="translate(-392.169 0.053)"/>
      <path d="M462.584,33.451a15.809,15.809,0,0,1-4.482-.595,6.619,6.619,0,0,1-2.718-1.551,5.132,5.132,0,0,1-1.36-2.422,13.08,13.08,0,0,1-.361-3.208V1.069l6.33-1.02V24.4a8.354,8.354,0,0,0,.127,1.53,2.64,2.64,0,0,0,.488,1.147,2.585,2.585,0,0,0,1.042.765,5.689,5.689,0,0,0,1.827.383Z" transform="translate(-391.937 -0.049)"/>
      <path d="M474.4,33.451a15.808,15.808,0,0,1-4.482-.595A6.619,6.619,0,0,1,467.2,31.3a5.132,5.132,0,0,1-1.36-2.422,13.078,13.078,0,0,1-.361-3.208V1.069l6.33-1.02V24.4a8.357,8.357,0,0,0,.127,1.53,2.64,2.64,0,0,0,.488,1.147,2.586,2.586,0,0,0,1.042.765,5.689,5.689,0,0,0,1.827.383Z" transform="translate(-391.819 -0.049)"/>
      <path  d="M476.25,21.917a13.662,13.662,0,0,1,.913-5.205,11.148,11.148,0,0,1,2.4-3.719,9.982,9.982,0,0,1,3.42-2.252,10.714,10.714,0,0,1,3.973-.765,9.872,9.872,0,0,1,7.519,2.911q2.762,2.911,2.762,8.563,0,.553-.042,1.211t-.085,1.169H482.75a4.21,4.21,0,0,0,1.827,3.1,7.344,7.344,0,0,0,4.334,1.147,18.281,18.281,0,0,0,3.42-.319,12.884,12.884,0,0,0,2.74-.786l.85,5.142a8.739,8.739,0,0,1-1.36.51,17.8,17.8,0,0,1-1.89.446q-1.042.191-2.231.319a22.344,22.344,0,0,1-2.379.127,14.074,14.074,0,0,1-5.246-.892,10.2,10.2,0,0,1-3.7-2.443,9.692,9.692,0,0,1-2.167-3.676A14.558,14.558,0,0,1,476.25,21.917Zm14.87-2.422a6.6,6.6,0,0,0-.276-1.572,3.954,3.954,0,0,0-.723-1.36,3.855,3.855,0,0,0-1.232-.977,4.009,4.009,0,0,0-1.847-.382,4.249,4.249,0,0,0-1.827.361,3.786,3.786,0,0,0-1.275.956,4.283,4.283,0,0,0-.785,1.381,8.955,8.955,0,0,0-.4,1.593Z" transform="translate(-391.711 0.053)"/>
      <path d="M500.185,5.065l6.33-1.02v6.587h7.6V15.9h-7.6v7.862a6.25,6.25,0,0,0,.7,3.187q.7,1.191,2.826,1.19a12.118,12.118,0,0,0,2.1-.191,10.833,10.833,0,0,0,1.975-.531l.893,4.93a17.964,17.964,0,0,1-2.549.808,14.866,14.866,0,0,1-3.441.34,11.324,11.324,0,0,1-4.291-.7,6.729,6.729,0,0,1-2.718-1.954,7.271,7.271,0,0,1-1.423-3.039,17.928,17.928,0,0,1-.4-3.952Z" transform="translate(-391.473 -0.008)"/>
    </g>
  </g>
</svg>
